<svg xmlns="http://www.w3.org/2000/svg" viewBox="0 0 75.11 85.45"><title>initials</title><path d="M22.64,100.35c6.19-.4,12.38-.67,18.57-1l9.29-.42,9.29-.33c3.09-.11,6.19-.31,9.28-.48a92.87,92.87,0,0,1,9.29,0c3.1.14,6.19.39,9.29.74a79.13,79.13,0,0,1,9.29,1.51v.5a81.23,81.23,0,0,1-9.29,1.5c-3.1.35-6.19.6-9.29.75s-6.19.13-9.29,0-6.19-.37-9.28-.47l-9.29-.34-9.29-.41c-6.19-.34-12.38-.61-18.57-1Z" transform="translate(-22.06 -17.75)" fill="#ed1c24"/><path d="M44.52,39.45c7,.2,9.62,3.3,9.81,14.2.19,10.4-2.45,13.3-8.87,14.1,6.42.3,9.06,3.4,9.25,12.2S51.88,92.46,44.8,92.66c-7.74.3-14.44-.31-22.65,0,.85-12.41.57-40.51-.09-53.21C30.17,39.75,36.68,39.15,44.52,39.45ZM23.85,17.75c9.81.3,22,.5,31.52.5,9.15,0,20.38-.6,29.72-.2,8.49.3,11.51,4.9,11.51,20.3,0,14.9-3.11,19.7-11,20.9C92,60,95.47,63,95.85,70.45c.28,6,.09,14.5,1.32,21.21,0,0-8.59-.31-16.23.3A146.84,146.84,0,0,0,81,74.85c-.19-3.6-.85-4.7-4-5-2.45-.2-7.74-.1-7.74-.1s-.47,10.2-.09,19.5c0,0-5.66-.29-11.42,0,1-11.7,1.32-35.3.94-53.5-9.62-.2-25.28,0-34.72.4C24,36.15,24.32,27.15,23.85,17.75Zm14.82,45.1c2.54-.2,3.3-2,3.2-5.3s-.37-5-2.73-5.3a45.91,45.91,0,0,0-6.33-.1,105.51,105.51,0,0,0-.09,10.7C33.76,62.85,36.68,63,38.67,62.85Zm-4.91,18.8c1.41.1,5.47.1,7.55,0,2.54-.3,3-1.7,3-4.3s-.85-4-3.4-4.2a58.64,58.64,0,0,0-7.27,0A67.16,67.16,0,0,0,33.76,81.65Zm46.8-30.3c4.06-.3,5.19-3,5.19-7.9s-.47-7.6-4.25-8a61.66,61.66,0,0,0-9.53-.1,157.07,157.07,0,0,0-.18,16A84.26,84.26,0,0,0,80.56,51.35Z" transform="translate(-22.06 -17.75)" fill="#ed2024"/></svg>